<svg width="1060" height="300" viewBox="0 0 1060 300" fill="none" xmlns="http://www.w3.org/2000/svg">
<mask id="mask0_781_3105" style="mask-type:luminance" maskUnits="userSpaceOnUse" x="0" y="0" width="1054" height="300">
<path d="M1053.38 0H0V300H1053.38V0Z" fill="white"/>
</mask>
<g mask="url(#mask0_781_3105)">
<path d="M263.611 100.465C291.354 100.465 313.844 77.9752 313.844 50.2326C313.844 22.4899 291.354 0 263.611 0C235.869 0 213.379 22.4899 213.379 50.2326C213.379 77.9752 235.869 100.465 263.611 100.465Z" fill="white"/>
<path d="M200.877 0H0V100.411H100.411V300H200.877V100.411V0Z" fill="white"/>
<path d="M727.571 0L677.607 150.537L627.696 0H527.177L476.891 150.644L426.551 0H326.086L426.39 300H527.338L577.41 150.322L627.374 300H728.054L828.036 0H727.571Z" fill="white"/>
<path d="M953.773 0H953.237H853.308H852.825L753.219 300H853.255L903.272 149.839L953.344 300H1053.38L953.773 0Z" fill="white"/>
</g>
</svg>
